G75*
%MOIN*%
%OFA0B0*%
%FSLAX25Y25*%
%IPPOS*%
%LPD*%
%AMOC8*
5,1,8,0,0,1.08239X$1,22.5*
%
%ADD10C,0.00000*%
D10*
X0001300Y0005000D02*
X0001300Y0319961D01*
X0395001Y0319961D01*
X0395001Y0005000D01*
X0001300Y0005000D01*
X0139050Y0020000D02*
X0139052Y0020113D01*
X0139058Y0020227D01*
X0139068Y0020340D01*
X0139082Y0020452D01*
X0139099Y0020564D01*
X0139121Y0020676D01*
X0139147Y0020786D01*
X0139176Y0020896D01*
X0139209Y0021004D01*
X0139246Y0021112D01*
X0139287Y0021217D01*
X0139331Y0021322D01*
X0139379Y0021425D01*
X0139430Y0021526D01*
X0139485Y0021625D01*
X0139544Y0021722D01*
X0139606Y0021817D01*
X0139671Y0021910D01*
X0139739Y0022001D01*
X0139810Y0022089D01*
X0139885Y0022175D01*
X0139962Y0022258D01*
X0140042Y0022338D01*
X0140125Y0022415D01*
X0140211Y0022490D01*
X0140299Y0022561D01*
X0140390Y0022629D01*
X0140483Y0022694D01*
X0140578Y0022756D01*
X0140675Y0022815D01*
X0140774Y0022870D01*
X0140875Y0022921D01*
X0140978Y0022969D01*
X0141083Y0023013D01*
X0141188Y0023054D01*
X0141296Y0023091D01*
X0141404Y0023124D01*
X0141514Y0023153D01*
X0141624Y0023179D01*
X0141736Y0023201D01*
X0141848Y0023218D01*
X0141960Y0023232D01*
X0142073Y0023242D01*
X0142187Y0023248D01*
X0142300Y0023250D01*
X0142413Y0023248D01*
X0142527Y0023242D01*
X0142640Y0023232D01*
X0142752Y0023218D01*
X0142864Y0023201D01*
X0142976Y0023179D01*
X0143086Y0023153D01*
X0143196Y0023124D01*
X0143304Y0023091D01*
X0143412Y0023054D01*
X0143517Y0023013D01*
X0143622Y0022969D01*
X0143725Y0022921D01*
X0143826Y0022870D01*
X0143925Y0022815D01*
X0144022Y0022756D01*
X0144117Y0022694D01*
X0144210Y0022629D01*
X0144301Y0022561D01*
X0144389Y0022490D01*
X0144475Y0022415D01*
X0144558Y0022338D01*
X0144638Y0022258D01*
X0144715Y0022175D01*
X0144790Y0022089D01*
X0144861Y0022001D01*
X0144929Y0021910D01*
X0144994Y0021817D01*
X0145056Y0021722D01*
X0145115Y0021625D01*
X0145170Y0021526D01*
X0145221Y0021425D01*
X0145269Y0021322D01*
X0145313Y0021217D01*
X0145354Y0021112D01*
X0145391Y0021004D01*
X0145424Y0020896D01*
X0145453Y0020786D01*
X0145479Y0020676D01*
X0145501Y0020564D01*
X0145518Y0020452D01*
X0145532Y0020340D01*
X0145542Y0020227D01*
X0145548Y0020113D01*
X0145550Y0020000D01*
X0145548Y0019887D01*
X0145542Y0019773D01*
X0145532Y0019660D01*
X0145518Y0019548D01*
X0145501Y0019436D01*
X0145479Y0019324D01*
X0145453Y0019214D01*
X0145424Y0019104D01*
X0145391Y0018996D01*
X0145354Y0018888D01*
X0145313Y0018783D01*
X0145269Y0018678D01*
X0145221Y0018575D01*
X0145170Y0018474D01*
X0145115Y0018375D01*
X0145056Y0018278D01*
X0144994Y0018183D01*
X0144929Y0018090D01*
X0144861Y0017999D01*
X0144790Y0017911D01*
X0144715Y0017825D01*
X0144638Y0017742D01*
X0144558Y0017662D01*
X0144475Y0017585D01*
X0144389Y0017510D01*
X0144301Y0017439D01*
X0144210Y0017371D01*
X0144117Y0017306D01*
X0144022Y0017244D01*
X0143925Y0017185D01*
X0143826Y0017130D01*
X0143725Y0017079D01*
X0143622Y0017031D01*
X0143517Y0016987D01*
X0143412Y0016946D01*
X0143304Y0016909D01*
X0143196Y0016876D01*
X0143086Y0016847D01*
X0142976Y0016821D01*
X0142864Y0016799D01*
X0142752Y0016782D01*
X0142640Y0016768D01*
X0142527Y0016758D01*
X0142413Y0016752D01*
X0142300Y0016750D01*
X0142187Y0016752D01*
X0142073Y0016758D01*
X0141960Y0016768D01*
X0141848Y0016782D01*
X0141736Y0016799D01*
X0141624Y0016821D01*
X0141514Y0016847D01*
X0141404Y0016876D01*
X0141296Y0016909D01*
X0141188Y0016946D01*
X0141083Y0016987D01*
X0140978Y0017031D01*
X0140875Y0017079D01*
X0140774Y0017130D01*
X0140675Y0017185D01*
X0140578Y0017244D01*
X0140483Y0017306D01*
X0140390Y0017371D01*
X0140299Y0017439D01*
X0140211Y0017510D01*
X0140125Y0017585D01*
X0140042Y0017662D01*
X0139962Y0017742D01*
X0139885Y0017825D01*
X0139810Y0017911D01*
X0139739Y0017999D01*
X0139671Y0018090D01*
X0139606Y0018183D01*
X0139544Y0018278D01*
X0139485Y0018375D01*
X0139430Y0018474D01*
X0139379Y0018575D01*
X0139331Y0018678D01*
X0139287Y0018783D01*
X0139246Y0018888D01*
X0139209Y0018996D01*
X0139176Y0019104D01*
X0139147Y0019214D01*
X0139121Y0019324D01*
X0139099Y0019436D01*
X0139082Y0019548D01*
X0139068Y0019660D01*
X0139058Y0019773D01*
X0139052Y0019887D01*
X0139050Y0020000D01*
X0166788Y0018000D02*
X0166790Y0018148D01*
X0166796Y0018296D01*
X0166806Y0018444D01*
X0166820Y0018591D01*
X0166838Y0018738D01*
X0166859Y0018884D01*
X0166885Y0019030D01*
X0166915Y0019175D01*
X0166948Y0019319D01*
X0166986Y0019462D01*
X0167027Y0019604D01*
X0167072Y0019745D01*
X0167120Y0019885D01*
X0167173Y0020024D01*
X0167229Y0020161D01*
X0167289Y0020296D01*
X0167352Y0020430D01*
X0167419Y0020562D01*
X0167490Y0020692D01*
X0167564Y0020820D01*
X0167641Y0020946D01*
X0167722Y0021070D01*
X0167806Y0021192D01*
X0167893Y0021311D01*
X0167984Y0021428D01*
X0168078Y0021543D01*
X0168174Y0021655D01*
X0168274Y0021765D01*
X0168376Y0021871D01*
X0168482Y0021975D01*
X0168590Y0022076D01*
X0168701Y0022174D01*
X0168814Y0022270D01*
X0168930Y0022362D01*
X0169048Y0022451D01*
X0169169Y0022536D01*
X0169292Y0022619D01*
X0169417Y0022698D01*
X0169544Y0022774D01*
X0169673Y0022846D01*
X0169804Y0022915D01*
X0169937Y0022980D01*
X0170072Y0023041D01*
X0170208Y0023099D01*
X0170345Y0023154D01*
X0170484Y0023204D01*
X0170625Y0023251D01*
X0170766Y0023294D01*
X0170909Y0023334D01*
X0171053Y0023369D01*
X0171197Y0023401D01*
X0171343Y0023428D01*
X0171489Y0023452D01*
X0171636Y0023472D01*
X0171783Y0023488D01*
X0171930Y0023500D01*
X0172078Y0023508D01*
X0172226Y0023512D01*
X0172374Y0023512D01*
X0172522Y0023508D01*
X0172670Y0023500D01*
X0172817Y0023488D01*
X0172964Y0023472D01*
X0173111Y0023452D01*
X0173257Y0023428D01*
X0173403Y0023401D01*
X0173547Y0023369D01*
X0173691Y0023334D01*
X0173834Y0023294D01*
X0173975Y0023251D01*
X0174116Y0023204D01*
X0174255Y0023154D01*
X0174392Y0023099D01*
X0174528Y0023041D01*
X0174663Y0022980D01*
X0174796Y0022915D01*
X0174927Y0022846D01*
X0175056Y0022774D01*
X0175183Y0022698D01*
X0175308Y0022619D01*
X0175431Y0022536D01*
X0175552Y0022451D01*
X0175670Y0022362D01*
X0175786Y0022270D01*
X0175899Y0022174D01*
X0176010Y0022076D01*
X0176118Y0021975D01*
X0176224Y0021871D01*
X0176326Y0021765D01*
X0176426Y0021655D01*
X0176522Y0021543D01*
X0176616Y0021428D01*
X0176707Y0021311D01*
X0176794Y0021192D01*
X0176878Y0021070D01*
X0176959Y0020946D01*
X0177036Y0020820D01*
X0177110Y0020692D01*
X0177181Y0020562D01*
X0177248Y0020430D01*
X0177311Y0020296D01*
X0177371Y0020161D01*
X0177427Y0020024D01*
X0177480Y0019885D01*
X0177528Y0019745D01*
X0177573Y0019604D01*
X0177614Y0019462D01*
X0177652Y0019319D01*
X0177685Y0019175D01*
X0177715Y0019030D01*
X0177741Y0018884D01*
X0177762Y0018738D01*
X0177780Y0018591D01*
X0177794Y0018444D01*
X0177804Y0018296D01*
X0177810Y0018148D01*
X0177812Y0018000D01*
X0177810Y0017852D01*
X0177804Y0017704D01*
X0177794Y0017556D01*
X0177780Y0017409D01*
X0177762Y0017262D01*
X0177741Y0017116D01*
X0177715Y0016970D01*
X0177685Y0016825D01*
X0177652Y0016681D01*
X0177614Y0016538D01*
X0177573Y0016396D01*
X0177528Y0016255D01*
X0177480Y0016115D01*
X0177427Y0015976D01*
X0177371Y0015839D01*
X0177311Y0015704D01*
X0177248Y0015570D01*
X0177181Y0015438D01*
X0177110Y0015308D01*
X0177036Y0015180D01*
X0176959Y0015054D01*
X0176878Y0014930D01*
X0176794Y0014808D01*
X0176707Y0014689D01*
X0176616Y0014572D01*
X0176522Y0014457D01*
X0176426Y0014345D01*
X0176326Y0014235D01*
X0176224Y0014129D01*
X0176118Y0014025D01*
X0176010Y0013924D01*
X0175899Y0013826D01*
X0175786Y0013730D01*
X0175670Y0013638D01*
X0175552Y0013549D01*
X0175431Y0013464D01*
X0175308Y0013381D01*
X0175183Y0013302D01*
X0175056Y0013226D01*
X0174927Y0013154D01*
X0174796Y0013085D01*
X0174663Y0013020D01*
X0174528Y0012959D01*
X0174392Y0012901D01*
X0174255Y0012846D01*
X0174116Y0012796D01*
X0173975Y0012749D01*
X0173834Y0012706D01*
X0173691Y0012666D01*
X0173547Y0012631D01*
X0173403Y0012599D01*
X0173257Y0012572D01*
X0173111Y0012548D01*
X0172964Y0012528D01*
X0172817Y0012512D01*
X0172670Y0012500D01*
X0172522Y0012492D01*
X0172374Y0012488D01*
X0172226Y0012488D01*
X0172078Y0012492D01*
X0171930Y0012500D01*
X0171783Y0012512D01*
X0171636Y0012528D01*
X0171489Y0012548D01*
X0171343Y0012572D01*
X0171197Y0012599D01*
X0171053Y0012631D01*
X0170909Y0012666D01*
X0170766Y0012706D01*
X0170625Y0012749D01*
X0170484Y0012796D01*
X0170345Y0012846D01*
X0170208Y0012901D01*
X0170072Y0012959D01*
X0169937Y0013020D01*
X0169804Y0013085D01*
X0169673Y0013154D01*
X0169544Y0013226D01*
X0169417Y0013302D01*
X0169292Y0013381D01*
X0169169Y0013464D01*
X0169048Y0013549D01*
X0168930Y0013638D01*
X0168814Y0013730D01*
X0168701Y0013826D01*
X0168590Y0013924D01*
X0168482Y0014025D01*
X0168376Y0014129D01*
X0168274Y0014235D01*
X0168174Y0014345D01*
X0168078Y0014457D01*
X0167984Y0014572D01*
X0167893Y0014689D01*
X0167806Y0014808D01*
X0167722Y0014930D01*
X0167641Y0015054D01*
X0167564Y0015180D01*
X0167490Y0015308D01*
X0167419Y0015438D01*
X0167352Y0015570D01*
X0167289Y0015704D01*
X0167229Y0015839D01*
X0167173Y0015976D01*
X0167120Y0016115D01*
X0167072Y0016255D01*
X0167027Y0016396D01*
X0166986Y0016538D01*
X0166948Y0016681D01*
X0166915Y0016825D01*
X0166885Y0016970D01*
X0166859Y0017116D01*
X0166838Y0017262D01*
X0166820Y0017409D01*
X0166806Y0017556D01*
X0166796Y0017704D01*
X0166790Y0017852D01*
X0166788Y0018000D01*
X0199050Y0020000D02*
X0199052Y0020113D01*
X0199058Y0020227D01*
X0199068Y0020340D01*
X0199082Y0020452D01*
X0199099Y0020564D01*
X0199121Y0020676D01*
X0199147Y0020786D01*
X0199176Y0020896D01*
X0199209Y0021004D01*
X0199246Y0021112D01*
X0199287Y0021217D01*
X0199331Y0021322D01*
X0199379Y0021425D01*
X0199430Y0021526D01*
X0199485Y0021625D01*
X0199544Y0021722D01*
X0199606Y0021817D01*
X0199671Y0021910D01*
X0199739Y0022001D01*
X0199810Y0022089D01*
X0199885Y0022175D01*
X0199962Y0022258D01*
X0200042Y0022338D01*
X0200125Y0022415D01*
X0200211Y0022490D01*
X0200299Y0022561D01*
X0200390Y0022629D01*
X0200483Y0022694D01*
X0200578Y0022756D01*
X0200675Y0022815D01*
X0200774Y0022870D01*
X0200875Y0022921D01*
X0200978Y0022969D01*
X0201083Y0023013D01*
X0201188Y0023054D01*
X0201296Y0023091D01*
X0201404Y0023124D01*
X0201514Y0023153D01*
X0201624Y0023179D01*
X0201736Y0023201D01*
X0201848Y0023218D01*
X0201960Y0023232D01*
X0202073Y0023242D01*
X0202187Y0023248D01*
X0202300Y0023250D01*
X0202413Y0023248D01*
X0202527Y0023242D01*
X0202640Y0023232D01*
X0202752Y0023218D01*
X0202864Y0023201D01*
X0202976Y0023179D01*
X0203086Y0023153D01*
X0203196Y0023124D01*
X0203304Y0023091D01*
X0203412Y0023054D01*
X0203517Y0023013D01*
X0203622Y0022969D01*
X0203725Y0022921D01*
X0203826Y0022870D01*
X0203925Y0022815D01*
X0204022Y0022756D01*
X0204117Y0022694D01*
X0204210Y0022629D01*
X0204301Y0022561D01*
X0204389Y0022490D01*
X0204475Y0022415D01*
X0204558Y0022338D01*
X0204638Y0022258D01*
X0204715Y0022175D01*
X0204790Y0022089D01*
X0204861Y0022001D01*
X0204929Y0021910D01*
X0204994Y0021817D01*
X0205056Y0021722D01*
X0205115Y0021625D01*
X0205170Y0021526D01*
X0205221Y0021425D01*
X0205269Y0021322D01*
X0205313Y0021217D01*
X0205354Y0021112D01*
X0205391Y0021004D01*
X0205424Y0020896D01*
X0205453Y0020786D01*
X0205479Y0020676D01*
X0205501Y0020564D01*
X0205518Y0020452D01*
X0205532Y0020340D01*
X0205542Y0020227D01*
X0205548Y0020113D01*
X0205550Y0020000D01*
X0205548Y0019887D01*
X0205542Y0019773D01*
X0205532Y0019660D01*
X0205518Y0019548D01*
X0205501Y0019436D01*
X0205479Y0019324D01*
X0205453Y0019214D01*
X0205424Y0019104D01*
X0205391Y0018996D01*
X0205354Y0018888D01*
X0205313Y0018783D01*
X0205269Y0018678D01*
X0205221Y0018575D01*
X0205170Y0018474D01*
X0205115Y0018375D01*
X0205056Y0018278D01*
X0204994Y0018183D01*
X0204929Y0018090D01*
X0204861Y0017999D01*
X0204790Y0017911D01*
X0204715Y0017825D01*
X0204638Y0017742D01*
X0204558Y0017662D01*
X0204475Y0017585D01*
X0204389Y0017510D01*
X0204301Y0017439D01*
X0204210Y0017371D01*
X0204117Y0017306D01*
X0204022Y0017244D01*
X0203925Y0017185D01*
X0203826Y0017130D01*
X0203725Y0017079D01*
X0203622Y0017031D01*
X0203517Y0016987D01*
X0203412Y0016946D01*
X0203304Y0016909D01*
X0203196Y0016876D01*
X0203086Y0016847D01*
X0202976Y0016821D01*
X0202864Y0016799D01*
X0202752Y0016782D01*
X0202640Y0016768D01*
X0202527Y0016758D01*
X0202413Y0016752D01*
X0202300Y0016750D01*
X0202187Y0016752D01*
X0202073Y0016758D01*
X0201960Y0016768D01*
X0201848Y0016782D01*
X0201736Y0016799D01*
X0201624Y0016821D01*
X0201514Y0016847D01*
X0201404Y0016876D01*
X0201296Y0016909D01*
X0201188Y0016946D01*
X0201083Y0016987D01*
X0200978Y0017031D01*
X0200875Y0017079D01*
X0200774Y0017130D01*
X0200675Y0017185D01*
X0200578Y0017244D01*
X0200483Y0017306D01*
X0200390Y0017371D01*
X0200299Y0017439D01*
X0200211Y0017510D01*
X0200125Y0017585D01*
X0200042Y0017662D01*
X0199962Y0017742D01*
X0199885Y0017825D01*
X0199810Y0017911D01*
X0199739Y0017999D01*
X0199671Y0018090D01*
X0199606Y0018183D01*
X0199544Y0018278D01*
X0199485Y0018375D01*
X0199430Y0018474D01*
X0199379Y0018575D01*
X0199331Y0018678D01*
X0199287Y0018783D01*
X0199246Y0018888D01*
X0199209Y0018996D01*
X0199176Y0019104D01*
X0199147Y0019214D01*
X0199121Y0019324D01*
X0199099Y0019436D01*
X0199082Y0019548D01*
X0199068Y0019660D01*
X0199058Y0019773D01*
X0199052Y0019887D01*
X0199050Y0020000D01*
X0376788Y0015000D02*
X0376790Y0015148D01*
X0376796Y0015296D01*
X0376806Y0015444D01*
X0376820Y0015591D01*
X0376838Y0015738D01*
X0376859Y0015884D01*
X0376885Y0016030D01*
X0376915Y0016175D01*
X0376948Y0016319D01*
X0376986Y0016462D01*
X0377027Y0016604D01*
X0377072Y0016745D01*
X0377120Y0016885D01*
X0377173Y0017024D01*
X0377229Y0017161D01*
X0377289Y0017296D01*
X0377352Y0017430D01*
X0377419Y0017562D01*
X0377490Y0017692D01*
X0377564Y0017820D01*
X0377641Y0017946D01*
X0377722Y0018070D01*
X0377806Y0018192D01*
X0377893Y0018311D01*
X0377984Y0018428D01*
X0378078Y0018543D01*
X0378174Y0018655D01*
X0378274Y0018765D01*
X0378376Y0018871D01*
X0378482Y0018975D01*
X0378590Y0019076D01*
X0378701Y0019174D01*
X0378814Y0019270D01*
X0378930Y0019362D01*
X0379048Y0019451D01*
X0379169Y0019536D01*
X0379292Y0019619D01*
X0379417Y0019698D01*
X0379544Y0019774D01*
X0379673Y0019846D01*
X0379804Y0019915D01*
X0379937Y0019980D01*
X0380072Y0020041D01*
X0380208Y0020099D01*
X0380345Y0020154D01*
X0380484Y0020204D01*
X0380625Y0020251D01*
X0380766Y0020294D01*
X0380909Y0020334D01*
X0381053Y0020369D01*
X0381197Y0020401D01*
X0381343Y0020428D01*
X0381489Y0020452D01*
X0381636Y0020472D01*
X0381783Y0020488D01*
X0381930Y0020500D01*
X0382078Y0020508D01*
X0382226Y0020512D01*
X0382374Y0020512D01*
X0382522Y0020508D01*
X0382670Y0020500D01*
X0382817Y0020488D01*
X0382964Y0020472D01*
X0383111Y0020452D01*
X0383257Y0020428D01*
X0383403Y0020401D01*
X0383547Y0020369D01*
X0383691Y0020334D01*
X0383834Y0020294D01*
X0383975Y0020251D01*
X0384116Y0020204D01*
X0384255Y0020154D01*
X0384392Y0020099D01*
X0384528Y0020041D01*
X0384663Y0019980D01*
X0384796Y0019915D01*
X0384927Y0019846D01*
X0385056Y0019774D01*
X0385183Y0019698D01*
X0385308Y0019619D01*
X0385431Y0019536D01*
X0385552Y0019451D01*
X0385670Y0019362D01*
X0385786Y0019270D01*
X0385899Y0019174D01*
X0386010Y0019076D01*
X0386118Y0018975D01*
X0386224Y0018871D01*
X0386326Y0018765D01*
X0386426Y0018655D01*
X0386522Y0018543D01*
X0386616Y0018428D01*
X0386707Y0018311D01*
X0386794Y0018192D01*
X0386878Y0018070D01*
X0386959Y0017946D01*
X0387036Y0017820D01*
X0387110Y0017692D01*
X0387181Y0017562D01*
X0387248Y0017430D01*
X0387311Y0017296D01*
X0387371Y0017161D01*
X0387427Y0017024D01*
X0387480Y0016885D01*
X0387528Y0016745D01*
X0387573Y0016604D01*
X0387614Y0016462D01*
X0387652Y0016319D01*
X0387685Y0016175D01*
X0387715Y0016030D01*
X0387741Y0015884D01*
X0387762Y0015738D01*
X0387780Y0015591D01*
X0387794Y0015444D01*
X0387804Y0015296D01*
X0387810Y0015148D01*
X0387812Y0015000D01*
X0387810Y0014852D01*
X0387804Y0014704D01*
X0387794Y0014556D01*
X0387780Y0014409D01*
X0387762Y0014262D01*
X0387741Y0014116D01*
X0387715Y0013970D01*
X0387685Y0013825D01*
X0387652Y0013681D01*
X0387614Y0013538D01*
X0387573Y0013396D01*
X0387528Y0013255D01*
X0387480Y0013115D01*
X0387427Y0012976D01*
X0387371Y0012839D01*
X0387311Y0012704D01*
X0387248Y0012570D01*
X0387181Y0012438D01*
X0387110Y0012308D01*
X0387036Y0012180D01*
X0386959Y0012054D01*
X0386878Y0011930D01*
X0386794Y0011808D01*
X0386707Y0011689D01*
X0386616Y0011572D01*
X0386522Y0011457D01*
X0386426Y0011345D01*
X0386326Y0011235D01*
X0386224Y0011129D01*
X0386118Y0011025D01*
X0386010Y0010924D01*
X0385899Y0010826D01*
X0385786Y0010730D01*
X0385670Y0010638D01*
X0385552Y0010549D01*
X0385431Y0010464D01*
X0385308Y0010381D01*
X0385183Y0010302D01*
X0385056Y0010226D01*
X0384927Y0010154D01*
X0384796Y0010085D01*
X0384663Y0010020D01*
X0384528Y0009959D01*
X0384392Y0009901D01*
X0384255Y0009846D01*
X0384116Y0009796D01*
X0383975Y0009749D01*
X0383834Y0009706D01*
X0383691Y0009666D01*
X0383547Y0009631D01*
X0383403Y0009599D01*
X0383257Y0009572D01*
X0383111Y0009548D01*
X0382964Y0009528D01*
X0382817Y0009512D01*
X0382670Y0009500D01*
X0382522Y0009492D01*
X0382374Y0009488D01*
X0382226Y0009488D01*
X0382078Y0009492D01*
X0381930Y0009500D01*
X0381783Y0009512D01*
X0381636Y0009528D01*
X0381489Y0009548D01*
X0381343Y0009572D01*
X0381197Y0009599D01*
X0381053Y0009631D01*
X0380909Y0009666D01*
X0380766Y0009706D01*
X0380625Y0009749D01*
X0380484Y0009796D01*
X0380345Y0009846D01*
X0380208Y0009901D01*
X0380072Y0009959D01*
X0379937Y0010020D01*
X0379804Y0010085D01*
X0379673Y0010154D01*
X0379544Y0010226D01*
X0379417Y0010302D01*
X0379292Y0010381D01*
X0379169Y0010464D01*
X0379048Y0010549D01*
X0378930Y0010638D01*
X0378814Y0010730D01*
X0378701Y0010826D01*
X0378590Y0010924D01*
X0378482Y0011025D01*
X0378376Y0011129D01*
X0378274Y0011235D01*
X0378174Y0011345D01*
X0378078Y0011457D01*
X0377984Y0011572D01*
X0377893Y0011689D01*
X0377806Y0011808D01*
X0377722Y0011930D01*
X0377641Y0012054D01*
X0377564Y0012180D01*
X0377490Y0012308D01*
X0377419Y0012438D01*
X0377352Y0012570D01*
X0377289Y0012704D01*
X0377229Y0012839D01*
X0377173Y0012976D01*
X0377120Y0013115D01*
X0377072Y0013255D01*
X0377027Y0013396D01*
X0376986Y0013538D01*
X0376948Y0013681D01*
X0376915Y0013825D01*
X0376885Y0013970D01*
X0376859Y0014116D01*
X0376838Y0014262D01*
X0376820Y0014409D01*
X0376806Y0014556D01*
X0376796Y0014704D01*
X0376790Y0014852D01*
X0376788Y0015000D01*
X0199050Y0180000D02*
X0199052Y0180113D01*
X0199058Y0180227D01*
X0199068Y0180340D01*
X0199082Y0180452D01*
X0199099Y0180564D01*
X0199121Y0180676D01*
X0199147Y0180786D01*
X0199176Y0180896D01*
X0199209Y0181004D01*
X0199246Y0181112D01*
X0199287Y0181217D01*
X0199331Y0181322D01*
X0199379Y0181425D01*
X0199430Y0181526D01*
X0199485Y0181625D01*
X0199544Y0181722D01*
X0199606Y0181817D01*
X0199671Y0181910D01*
X0199739Y0182001D01*
X0199810Y0182089D01*
X0199885Y0182175D01*
X0199962Y0182258D01*
X0200042Y0182338D01*
X0200125Y0182415D01*
X0200211Y0182490D01*
X0200299Y0182561D01*
X0200390Y0182629D01*
X0200483Y0182694D01*
X0200578Y0182756D01*
X0200675Y0182815D01*
X0200774Y0182870D01*
X0200875Y0182921D01*
X0200978Y0182969D01*
X0201083Y0183013D01*
X0201188Y0183054D01*
X0201296Y0183091D01*
X0201404Y0183124D01*
X0201514Y0183153D01*
X0201624Y0183179D01*
X0201736Y0183201D01*
X0201848Y0183218D01*
X0201960Y0183232D01*
X0202073Y0183242D01*
X0202187Y0183248D01*
X0202300Y0183250D01*
X0202413Y0183248D01*
X0202527Y0183242D01*
X0202640Y0183232D01*
X0202752Y0183218D01*
X0202864Y0183201D01*
X0202976Y0183179D01*
X0203086Y0183153D01*
X0203196Y0183124D01*
X0203304Y0183091D01*
X0203412Y0183054D01*
X0203517Y0183013D01*
X0203622Y0182969D01*
X0203725Y0182921D01*
X0203826Y0182870D01*
X0203925Y0182815D01*
X0204022Y0182756D01*
X0204117Y0182694D01*
X0204210Y0182629D01*
X0204301Y0182561D01*
X0204389Y0182490D01*
X0204475Y0182415D01*
X0204558Y0182338D01*
X0204638Y0182258D01*
X0204715Y0182175D01*
X0204790Y0182089D01*
X0204861Y0182001D01*
X0204929Y0181910D01*
X0204994Y0181817D01*
X0205056Y0181722D01*
X0205115Y0181625D01*
X0205170Y0181526D01*
X0205221Y0181425D01*
X0205269Y0181322D01*
X0205313Y0181217D01*
X0205354Y0181112D01*
X0205391Y0181004D01*
X0205424Y0180896D01*
X0205453Y0180786D01*
X0205479Y0180676D01*
X0205501Y0180564D01*
X0205518Y0180452D01*
X0205532Y0180340D01*
X0205542Y0180227D01*
X0205548Y0180113D01*
X0205550Y0180000D01*
X0205548Y0179887D01*
X0205542Y0179773D01*
X0205532Y0179660D01*
X0205518Y0179548D01*
X0205501Y0179436D01*
X0205479Y0179324D01*
X0205453Y0179214D01*
X0205424Y0179104D01*
X0205391Y0178996D01*
X0205354Y0178888D01*
X0205313Y0178783D01*
X0205269Y0178678D01*
X0205221Y0178575D01*
X0205170Y0178474D01*
X0205115Y0178375D01*
X0205056Y0178278D01*
X0204994Y0178183D01*
X0204929Y0178090D01*
X0204861Y0177999D01*
X0204790Y0177911D01*
X0204715Y0177825D01*
X0204638Y0177742D01*
X0204558Y0177662D01*
X0204475Y0177585D01*
X0204389Y0177510D01*
X0204301Y0177439D01*
X0204210Y0177371D01*
X0204117Y0177306D01*
X0204022Y0177244D01*
X0203925Y0177185D01*
X0203826Y0177130D01*
X0203725Y0177079D01*
X0203622Y0177031D01*
X0203517Y0176987D01*
X0203412Y0176946D01*
X0203304Y0176909D01*
X0203196Y0176876D01*
X0203086Y0176847D01*
X0202976Y0176821D01*
X0202864Y0176799D01*
X0202752Y0176782D01*
X0202640Y0176768D01*
X0202527Y0176758D01*
X0202413Y0176752D01*
X0202300Y0176750D01*
X0202187Y0176752D01*
X0202073Y0176758D01*
X0201960Y0176768D01*
X0201848Y0176782D01*
X0201736Y0176799D01*
X0201624Y0176821D01*
X0201514Y0176847D01*
X0201404Y0176876D01*
X0201296Y0176909D01*
X0201188Y0176946D01*
X0201083Y0176987D01*
X0200978Y0177031D01*
X0200875Y0177079D01*
X0200774Y0177130D01*
X0200675Y0177185D01*
X0200578Y0177244D01*
X0200483Y0177306D01*
X0200390Y0177371D01*
X0200299Y0177439D01*
X0200211Y0177510D01*
X0200125Y0177585D01*
X0200042Y0177662D01*
X0199962Y0177742D01*
X0199885Y0177825D01*
X0199810Y0177911D01*
X0199739Y0177999D01*
X0199671Y0178090D01*
X0199606Y0178183D01*
X0199544Y0178278D01*
X0199485Y0178375D01*
X0199430Y0178474D01*
X0199379Y0178575D01*
X0199331Y0178678D01*
X0199287Y0178783D01*
X0199246Y0178888D01*
X0199209Y0178996D01*
X0199176Y0179104D01*
X0199147Y0179214D01*
X0199121Y0179324D01*
X0199099Y0179436D01*
X0199082Y0179548D01*
X0199068Y0179660D01*
X0199058Y0179773D01*
X0199052Y0179887D01*
X0199050Y0180000D01*
X0194800Y0225000D02*
X0194802Y0225161D01*
X0194808Y0225321D01*
X0194818Y0225482D01*
X0194832Y0225642D01*
X0194850Y0225802D01*
X0194871Y0225961D01*
X0194897Y0226120D01*
X0194927Y0226278D01*
X0194960Y0226435D01*
X0194998Y0226592D01*
X0195039Y0226747D01*
X0195084Y0226901D01*
X0195133Y0227054D01*
X0195186Y0227206D01*
X0195242Y0227357D01*
X0195303Y0227506D01*
X0195366Y0227654D01*
X0195434Y0227800D01*
X0195505Y0227944D01*
X0195579Y0228086D01*
X0195657Y0228227D01*
X0195739Y0228365D01*
X0195824Y0228502D01*
X0195912Y0228636D01*
X0196004Y0228768D01*
X0196099Y0228898D01*
X0196197Y0229026D01*
X0196298Y0229151D01*
X0196402Y0229273D01*
X0196509Y0229393D01*
X0196619Y0229510D01*
X0196732Y0229625D01*
X0196848Y0229736D01*
X0196967Y0229845D01*
X0197088Y0229950D01*
X0197212Y0230053D01*
X0197338Y0230153D01*
X0197466Y0230249D01*
X0197597Y0230342D01*
X0197731Y0230432D01*
X0197866Y0230519D01*
X0198004Y0230602D01*
X0198143Y0230682D01*
X0198285Y0230758D01*
X0198428Y0230831D01*
X0198573Y0230900D01*
X0198720Y0230966D01*
X0198868Y0231028D01*
X0199018Y0231086D01*
X0199169Y0231141D01*
X0199322Y0231192D01*
X0199476Y0231239D01*
X0199631Y0231282D01*
X0199787Y0231321D01*
X0199943Y0231357D01*
X0200101Y0231388D01*
X0200259Y0231416D01*
X0200418Y0231440D01*
X0200578Y0231460D01*
X0200738Y0231476D01*
X0200898Y0231488D01*
X0201059Y0231496D01*
X0201220Y0231500D01*
X0201380Y0231500D01*
X0201541Y0231496D01*
X0201702Y0231488D01*
X0201862Y0231476D01*
X0202022Y0231460D01*
X0202182Y0231440D01*
X0202341Y0231416D01*
X0202499Y0231388D01*
X0202657Y0231357D01*
X0202813Y0231321D01*
X0202969Y0231282D01*
X0203124Y0231239D01*
X0203278Y0231192D01*
X0203431Y0231141D01*
X0203582Y0231086D01*
X0203732Y0231028D01*
X0203880Y0230966D01*
X0204027Y0230900D01*
X0204172Y0230831D01*
X0204315Y0230758D01*
X0204457Y0230682D01*
X0204596Y0230602D01*
X0204734Y0230519D01*
X0204869Y0230432D01*
X0205003Y0230342D01*
X0205134Y0230249D01*
X0205262Y0230153D01*
X0205388Y0230053D01*
X0205512Y0229950D01*
X0205633Y0229845D01*
X0205752Y0229736D01*
X0205868Y0229625D01*
X0205981Y0229510D01*
X0206091Y0229393D01*
X0206198Y0229273D01*
X0206302Y0229151D01*
X0206403Y0229026D01*
X0206501Y0228898D01*
X0206596Y0228768D01*
X0206688Y0228636D01*
X0206776Y0228502D01*
X0206861Y0228365D01*
X0206943Y0228227D01*
X0207021Y0228086D01*
X0207095Y0227944D01*
X0207166Y0227800D01*
X0207234Y0227654D01*
X0207297Y0227506D01*
X0207358Y0227357D01*
X0207414Y0227206D01*
X0207467Y0227054D01*
X0207516Y0226901D01*
X0207561Y0226747D01*
X0207602Y0226592D01*
X0207640Y0226435D01*
X0207673Y0226278D01*
X0207703Y0226120D01*
X0207729Y0225961D01*
X0207750Y0225802D01*
X0207768Y0225642D01*
X0207782Y0225482D01*
X0207792Y0225321D01*
X0207798Y0225161D01*
X0207800Y0225000D01*
X0207798Y0224839D01*
X0207792Y0224679D01*
X0207782Y0224518D01*
X0207768Y0224358D01*
X0207750Y0224198D01*
X0207729Y0224039D01*
X0207703Y0223880D01*
X0207673Y0223722D01*
X0207640Y0223565D01*
X0207602Y0223408D01*
X0207561Y0223253D01*
X0207516Y0223099D01*
X0207467Y0222946D01*
X0207414Y0222794D01*
X0207358Y0222643D01*
X0207297Y0222494D01*
X0207234Y0222346D01*
X0207166Y0222200D01*
X0207095Y0222056D01*
X0207021Y0221914D01*
X0206943Y0221773D01*
X0206861Y0221635D01*
X0206776Y0221498D01*
X0206688Y0221364D01*
X0206596Y0221232D01*
X0206501Y0221102D01*
X0206403Y0220974D01*
X0206302Y0220849D01*
X0206198Y0220727D01*
X0206091Y0220607D01*
X0205981Y0220490D01*
X0205868Y0220375D01*
X0205752Y0220264D01*
X0205633Y0220155D01*
X0205512Y0220050D01*
X0205388Y0219947D01*
X0205262Y0219847D01*
X0205134Y0219751D01*
X0205003Y0219658D01*
X0204869Y0219568D01*
X0204734Y0219481D01*
X0204596Y0219398D01*
X0204457Y0219318D01*
X0204315Y0219242D01*
X0204172Y0219169D01*
X0204027Y0219100D01*
X0203880Y0219034D01*
X0203732Y0218972D01*
X0203582Y0218914D01*
X0203431Y0218859D01*
X0203278Y0218808D01*
X0203124Y0218761D01*
X0202969Y0218718D01*
X0202813Y0218679D01*
X0202657Y0218643D01*
X0202499Y0218612D01*
X0202341Y0218584D01*
X0202182Y0218560D01*
X0202022Y0218540D01*
X0201862Y0218524D01*
X0201702Y0218512D01*
X0201541Y0218504D01*
X0201380Y0218500D01*
X0201220Y0218500D01*
X0201059Y0218504D01*
X0200898Y0218512D01*
X0200738Y0218524D01*
X0200578Y0218540D01*
X0200418Y0218560D01*
X0200259Y0218584D01*
X0200101Y0218612D01*
X0199943Y0218643D01*
X0199787Y0218679D01*
X0199631Y0218718D01*
X0199476Y0218761D01*
X0199322Y0218808D01*
X0199169Y0218859D01*
X0199018Y0218914D01*
X0198868Y0218972D01*
X0198720Y0219034D01*
X0198573Y0219100D01*
X0198428Y0219169D01*
X0198285Y0219242D01*
X0198143Y0219318D01*
X0198004Y0219398D01*
X0197866Y0219481D01*
X0197731Y0219568D01*
X0197597Y0219658D01*
X0197466Y0219751D01*
X0197338Y0219847D01*
X0197212Y0219947D01*
X0197088Y0220050D01*
X0196967Y0220155D01*
X0196848Y0220264D01*
X0196732Y0220375D01*
X0196619Y0220490D01*
X0196509Y0220607D01*
X0196402Y0220727D01*
X0196298Y0220849D01*
X0196197Y0220974D01*
X0196099Y0221102D01*
X0196004Y0221232D01*
X0195912Y0221364D01*
X0195824Y0221498D01*
X0195739Y0221635D01*
X0195657Y0221773D01*
X0195579Y0221914D01*
X0195505Y0222056D01*
X0195434Y0222200D01*
X0195366Y0222346D01*
X0195303Y0222494D01*
X0195242Y0222643D01*
X0195186Y0222794D01*
X0195133Y0222946D01*
X0195084Y0223099D01*
X0195039Y0223253D01*
X0194998Y0223408D01*
X0194960Y0223565D01*
X0194927Y0223722D01*
X0194897Y0223880D01*
X0194871Y0224039D01*
X0194850Y0224198D01*
X0194832Y0224358D01*
X0194818Y0224518D01*
X0194808Y0224679D01*
X0194802Y0224839D01*
X0194800Y0225000D01*
X0139050Y0180000D02*
X0139052Y0180113D01*
X0139058Y0180227D01*
X0139068Y0180340D01*
X0139082Y0180452D01*
X0139099Y0180564D01*
X0139121Y0180676D01*
X0139147Y0180786D01*
X0139176Y0180896D01*
X0139209Y0181004D01*
X0139246Y0181112D01*
X0139287Y0181217D01*
X0139331Y0181322D01*
X0139379Y0181425D01*
X0139430Y0181526D01*
X0139485Y0181625D01*
X0139544Y0181722D01*
X0139606Y0181817D01*
X0139671Y0181910D01*
X0139739Y0182001D01*
X0139810Y0182089D01*
X0139885Y0182175D01*
X0139962Y0182258D01*
X0140042Y0182338D01*
X0140125Y0182415D01*
X0140211Y0182490D01*
X0140299Y0182561D01*
X0140390Y0182629D01*
X0140483Y0182694D01*
X0140578Y0182756D01*
X0140675Y0182815D01*
X0140774Y0182870D01*
X0140875Y0182921D01*
X0140978Y0182969D01*
X0141083Y0183013D01*
X0141188Y0183054D01*
X0141296Y0183091D01*
X0141404Y0183124D01*
X0141514Y0183153D01*
X0141624Y0183179D01*
X0141736Y0183201D01*
X0141848Y0183218D01*
X0141960Y0183232D01*
X0142073Y0183242D01*
X0142187Y0183248D01*
X0142300Y0183250D01*
X0142413Y0183248D01*
X0142527Y0183242D01*
X0142640Y0183232D01*
X0142752Y0183218D01*
X0142864Y0183201D01*
X0142976Y0183179D01*
X0143086Y0183153D01*
X0143196Y0183124D01*
X0143304Y0183091D01*
X0143412Y0183054D01*
X0143517Y0183013D01*
X0143622Y0182969D01*
X0143725Y0182921D01*
X0143826Y0182870D01*
X0143925Y0182815D01*
X0144022Y0182756D01*
X0144117Y0182694D01*
X0144210Y0182629D01*
X0144301Y0182561D01*
X0144389Y0182490D01*
X0144475Y0182415D01*
X0144558Y0182338D01*
X0144638Y0182258D01*
X0144715Y0182175D01*
X0144790Y0182089D01*
X0144861Y0182001D01*
X0144929Y0181910D01*
X0144994Y0181817D01*
X0145056Y0181722D01*
X0145115Y0181625D01*
X0145170Y0181526D01*
X0145221Y0181425D01*
X0145269Y0181322D01*
X0145313Y0181217D01*
X0145354Y0181112D01*
X0145391Y0181004D01*
X0145424Y0180896D01*
X0145453Y0180786D01*
X0145479Y0180676D01*
X0145501Y0180564D01*
X0145518Y0180452D01*
X0145532Y0180340D01*
X0145542Y0180227D01*
X0145548Y0180113D01*
X0145550Y0180000D01*
X0145548Y0179887D01*
X0145542Y0179773D01*
X0145532Y0179660D01*
X0145518Y0179548D01*
X0145501Y0179436D01*
X0145479Y0179324D01*
X0145453Y0179214D01*
X0145424Y0179104D01*
X0145391Y0178996D01*
X0145354Y0178888D01*
X0145313Y0178783D01*
X0145269Y0178678D01*
X0145221Y0178575D01*
X0145170Y0178474D01*
X0145115Y0178375D01*
X0145056Y0178278D01*
X0144994Y0178183D01*
X0144929Y0178090D01*
X0144861Y0177999D01*
X0144790Y0177911D01*
X0144715Y0177825D01*
X0144638Y0177742D01*
X0144558Y0177662D01*
X0144475Y0177585D01*
X0144389Y0177510D01*
X0144301Y0177439D01*
X0144210Y0177371D01*
X0144117Y0177306D01*
X0144022Y0177244D01*
X0143925Y0177185D01*
X0143826Y0177130D01*
X0143725Y0177079D01*
X0143622Y0177031D01*
X0143517Y0176987D01*
X0143412Y0176946D01*
X0143304Y0176909D01*
X0143196Y0176876D01*
X0143086Y0176847D01*
X0142976Y0176821D01*
X0142864Y0176799D01*
X0142752Y0176782D01*
X0142640Y0176768D01*
X0142527Y0176758D01*
X0142413Y0176752D01*
X0142300Y0176750D01*
X0142187Y0176752D01*
X0142073Y0176758D01*
X0141960Y0176768D01*
X0141848Y0176782D01*
X0141736Y0176799D01*
X0141624Y0176821D01*
X0141514Y0176847D01*
X0141404Y0176876D01*
X0141296Y0176909D01*
X0141188Y0176946D01*
X0141083Y0176987D01*
X0140978Y0177031D01*
X0140875Y0177079D01*
X0140774Y0177130D01*
X0140675Y0177185D01*
X0140578Y0177244D01*
X0140483Y0177306D01*
X0140390Y0177371D01*
X0140299Y0177439D01*
X0140211Y0177510D01*
X0140125Y0177585D01*
X0140042Y0177662D01*
X0139962Y0177742D01*
X0139885Y0177825D01*
X0139810Y0177911D01*
X0139739Y0177999D01*
X0139671Y0178090D01*
X0139606Y0178183D01*
X0139544Y0178278D01*
X0139485Y0178375D01*
X0139430Y0178474D01*
X0139379Y0178575D01*
X0139331Y0178678D01*
X0139287Y0178783D01*
X0139246Y0178888D01*
X0139209Y0178996D01*
X0139176Y0179104D01*
X0139147Y0179214D01*
X0139121Y0179324D01*
X0139099Y0179436D01*
X0139082Y0179548D01*
X0139068Y0179660D01*
X0139058Y0179773D01*
X0139052Y0179887D01*
X0139050Y0180000D01*
X0068788Y0307000D02*
X0068790Y0307148D01*
X0068796Y0307296D01*
X0068806Y0307444D01*
X0068820Y0307591D01*
X0068838Y0307738D01*
X0068859Y0307884D01*
X0068885Y0308030D01*
X0068915Y0308175D01*
X0068948Y0308319D01*
X0068986Y0308462D01*
X0069027Y0308604D01*
X0069072Y0308745D01*
X0069120Y0308885D01*
X0069173Y0309024D01*
X0069229Y0309161D01*
X0069289Y0309296D01*
X0069352Y0309430D01*
X0069419Y0309562D01*
X0069490Y0309692D01*
X0069564Y0309820D01*
X0069641Y0309946D01*
X0069722Y0310070D01*
X0069806Y0310192D01*
X0069893Y0310311D01*
X0069984Y0310428D01*
X0070078Y0310543D01*
X0070174Y0310655D01*
X0070274Y0310765D01*
X0070376Y0310871D01*
X0070482Y0310975D01*
X0070590Y0311076D01*
X0070701Y0311174D01*
X0070814Y0311270D01*
X0070930Y0311362D01*
X0071048Y0311451D01*
X0071169Y0311536D01*
X0071292Y0311619D01*
X0071417Y0311698D01*
X0071544Y0311774D01*
X0071673Y0311846D01*
X0071804Y0311915D01*
X0071937Y0311980D01*
X0072072Y0312041D01*
X0072208Y0312099D01*
X0072345Y0312154D01*
X0072484Y0312204D01*
X0072625Y0312251D01*
X0072766Y0312294D01*
X0072909Y0312334D01*
X0073053Y0312369D01*
X0073197Y0312401D01*
X0073343Y0312428D01*
X0073489Y0312452D01*
X0073636Y0312472D01*
X0073783Y0312488D01*
X0073930Y0312500D01*
X0074078Y0312508D01*
X0074226Y0312512D01*
X0074374Y0312512D01*
X0074522Y0312508D01*
X0074670Y0312500D01*
X0074817Y0312488D01*
X0074964Y0312472D01*
X0075111Y0312452D01*
X0075257Y0312428D01*
X0075403Y0312401D01*
X0075547Y0312369D01*
X0075691Y0312334D01*
X0075834Y0312294D01*
X0075975Y0312251D01*
X0076116Y0312204D01*
X0076255Y0312154D01*
X0076392Y0312099D01*
X0076528Y0312041D01*
X0076663Y0311980D01*
X0076796Y0311915D01*
X0076927Y0311846D01*
X0077056Y0311774D01*
X0077183Y0311698D01*
X0077308Y0311619D01*
X0077431Y0311536D01*
X0077552Y0311451D01*
X0077670Y0311362D01*
X0077786Y0311270D01*
X0077899Y0311174D01*
X0078010Y0311076D01*
X0078118Y0310975D01*
X0078224Y0310871D01*
X0078326Y0310765D01*
X0078426Y0310655D01*
X0078522Y0310543D01*
X0078616Y0310428D01*
X0078707Y0310311D01*
X0078794Y0310192D01*
X0078878Y0310070D01*
X0078959Y0309946D01*
X0079036Y0309820D01*
X0079110Y0309692D01*
X0079181Y0309562D01*
X0079248Y0309430D01*
X0079311Y0309296D01*
X0079371Y0309161D01*
X0079427Y0309024D01*
X0079480Y0308885D01*
X0079528Y0308745D01*
X0079573Y0308604D01*
X0079614Y0308462D01*
X0079652Y0308319D01*
X0079685Y0308175D01*
X0079715Y0308030D01*
X0079741Y0307884D01*
X0079762Y0307738D01*
X0079780Y0307591D01*
X0079794Y0307444D01*
X0079804Y0307296D01*
X0079810Y0307148D01*
X0079812Y0307000D01*
X0079810Y0306852D01*
X0079804Y0306704D01*
X0079794Y0306556D01*
X0079780Y0306409D01*
X0079762Y0306262D01*
X0079741Y0306116D01*
X0079715Y0305970D01*
X0079685Y0305825D01*
X0079652Y0305681D01*
X0079614Y0305538D01*
X0079573Y0305396D01*
X0079528Y0305255D01*
X0079480Y0305115D01*
X0079427Y0304976D01*
X0079371Y0304839D01*
X0079311Y0304704D01*
X0079248Y0304570D01*
X0079181Y0304438D01*
X0079110Y0304308D01*
X0079036Y0304180D01*
X0078959Y0304054D01*
X0078878Y0303930D01*
X0078794Y0303808D01*
X0078707Y0303689D01*
X0078616Y0303572D01*
X0078522Y0303457D01*
X0078426Y0303345D01*
X0078326Y0303235D01*
X0078224Y0303129D01*
X0078118Y0303025D01*
X0078010Y0302924D01*
X0077899Y0302826D01*
X0077786Y0302730D01*
X0077670Y0302638D01*
X0077552Y0302549D01*
X0077431Y0302464D01*
X0077308Y0302381D01*
X0077183Y0302302D01*
X0077056Y0302226D01*
X0076927Y0302154D01*
X0076796Y0302085D01*
X0076663Y0302020D01*
X0076528Y0301959D01*
X0076392Y0301901D01*
X0076255Y0301846D01*
X0076116Y0301796D01*
X0075975Y0301749D01*
X0075834Y0301706D01*
X0075691Y0301666D01*
X0075547Y0301631D01*
X0075403Y0301599D01*
X0075257Y0301572D01*
X0075111Y0301548D01*
X0074964Y0301528D01*
X0074817Y0301512D01*
X0074670Y0301500D01*
X0074522Y0301492D01*
X0074374Y0301488D01*
X0074226Y0301488D01*
X0074078Y0301492D01*
X0073930Y0301500D01*
X0073783Y0301512D01*
X0073636Y0301528D01*
X0073489Y0301548D01*
X0073343Y0301572D01*
X0073197Y0301599D01*
X0073053Y0301631D01*
X0072909Y0301666D01*
X0072766Y0301706D01*
X0072625Y0301749D01*
X0072484Y0301796D01*
X0072345Y0301846D01*
X0072208Y0301901D01*
X0072072Y0301959D01*
X0071937Y0302020D01*
X0071804Y0302085D01*
X0071673Y0302154D01*
X0071544Y0302226D01*
X0071417Y0302302D01*
X0071292Y0302381D01*
X0071169Y0302464D01*
X0071048Y0302549D01*
X0070930Y0302638D01*
X0070814Y0302730D01*
X0070701Y0302826D01*
X0070590Y0302924D01*
X0070482Y0303025D01*
X0070376Y0303129D01*
X0070274Y0303235D01*
X0070174Y0303345D01*
X0070078Y0303457D01*
X0069984Y0303572D01*
X0069893Y0303689D01*
X0069806Y0303808D01*
X0069722Y0303930D01*
X0069641Y0304054D01*
X0069564Y0304180D01*
X0069490Y0304308D01*
X0069419Y0304438D01*
X0069352Y0304570D01*
X0069289Y0304704D01*
X0069229Y0304839D01*
X0069173Y0304976D01*
X0069120Y0305115D01*
X0069072Y0305255D01*
X0069027Y0305396D01*
X0068986Y0305538D01*
X0068948Y0305681D01*
X0068915Y0305825D01*
X0068885Y0305970D01*
X0068859Y0306116D01*
X0068838Y0306262D01*
X0068820Y0306409D01*
X0068806Y0306556D01*
X0068796Y0306704D01*
X0068790Y0306852D01*
X0068788Y0307000D01*
X0376788Y0307000D02*
X0376790Y0307148D01*
X0376796Y0307296D01*
X0376806Y0307444D01*
X0376820Y0307591D01*
X0376838Y0307738D01*
X0376859Y0307884D01*
X0376885Y0308030D01*
X0376915Y0308175D01*
X0376948Y0308319D01*
X0376986Y0308462D01*
X0377027Y0308604D01*
X0377072Y0308745D01*
X0377120Y0308885D01*
X0377173Y0309024D01*
X0377229Y0309161D01*
X0377289Y0309296D01*
X0377352Y0309430D01*
X0377419Y0309562D01*
X0377490Y0309692D01*
X0377564Y0309820D01*
X0377641Y0309946D01*
X0377722Y0310070D01*
X0377806Y0310192D01*
X0377893Y0310311D01*
X0377984Y0310428D01*
X0378078Y0310543D01*
X0378174Y0310655D01*
X0378274Y0310765D01*
X0378376Y0310871D01*
X0378482Y0310975D01*
X0378590Y0311076D01*
X0378701Y0311174D01*
X0378814Y0311270D01*
X0378930Y0311362D01*
X0379048Y0311451D01*
X0379169Y0311536D01*
X0379292Y0311619D01*
X0379417Y0311698D01*
X0379544Y0311774D01*
X0379673Y0311846D01*
X0379804Y0311915D01*
X0379937Y0311980D01*
X0380072Y0312041D01*
X0380208Y0312099D01*
X0380345Y0312154D01*
X0380484Y0312204D01*
X0380625Y0312251D01*
X0380766Y0312294D01*
X0380909Y0312334D01*
X0381053Y0312369D01*
X0381197Y0312401D01*
X0381343Y0312428D01*
X0381489Y0312452D01*
X0381636Y0312472D01*
X0381783Y0312488D01*
X0381930Y0312500D01*
X0382078Y0312508D01*
X0382226Y0312512D01*
X0382374Y0312512D01*
X0382522Y0312508D01*
X0382670Y0312500D01*
X0382817Y0312488D01*
X0382964Y0312472D01*
X0383111Y0312452D01*
X0383257Y0312428D01*
X0383403Y0312401D01*
X0383547Y0312369D01*
X0383691Y0312334D01*
X0383834Y0312294D01*
X0383975Y0312251D01*
X0384116Y0312204D01*
X0384255Y0312154D01*
X0384392Y0312099D01*
X0384528Y0312041D01*
X0384663Y0311980D01*
X0384796Y0311915D01*
X0384927Y0311846D01*
X0385056Y0311774D01*
X0385183Y0311698D01*
X0385308Y0311619D01*
X0385431Y0311536D01*
X0385552Y0311451D01*
X0385670Y0311362D01*
X0385786Y0311270D01*
X0385899Y0311174D01*
X0386010Y0311076D01*
X0386118Y0310975D01*
X0386224Y0310871D01*
X0386326Y0310765D01*
X0386426Y0310655D01*
X0386522Y0310543D01*
X0386616Y0310428D01*
X0386707Y0310311D01*
X0386794Y0310192D01*
X0386878Y0310070D01*
X0386959Y0309946D01*
X0387036Y0309820D01*
X0387110Y0309692D01*
X0387181Y0309562D01*
X0387248Y0309430D01*
X0387311Y0309296D01*
X0387371Y0309161D01*
X0387427Y0309024D01*
X0387480Y0308885D01*
X0387528Y0308745D01*
X0387573Y0308604D01*
X0387614Y0308462D01*
X0387652Y0308319D01*
X0387685Y0308175D01*
X0387715Y0308030D01*
X0387741Y0307884D01*
X0387762Y0307738D01*
X0387780Y0307591D01*
X0387794Y0307444D01*
X0387804Y0307296D01*
X0387810Y0307148D01*
X0387812Y0307000D01*
X0387810Y0306852D01*
X0387804Y0306704D01*
X0387794Y0306556D01*
X0387780Y0306409D01*
X0387762Y0306262D01*
X0387741Y0306116D01*
X0387715Y0305970D01*
X0387685Y0305825D01*
X0387652Y0305681D01*
X0387614Y0305538D01*
X0387573Y0305396D01*
X0387528Y0305255D01*
X0387480Y0305115D01*
X0387427Y0304976D01*
X0387371Y0304839D01*
X0387311Y0304704D01*
X0387248Y0304570D01*
X0387181Y0304438D01*
X0387110Y0304308D01*
X0387036Y0304180D01*
X0386959Y0304054D01*
X0386878Y0303930D01*
X0386794Y0303808D01*
X0386707Y0303689D01*
X0386616Y0303572D01*
X0386522Y0303457D01*
X0386426Y0303345D01*
X0386326Y0303235D01*
X0386224Y0303129D01*
X0386118Y0303025D01*
X0386010Y0302924D01*
X0385899Y0302826D01*
X0385786Y0302730D01*
X0385670Y0302638D01*
X0385552Y0302549D01*
X0385431Y0302464D01*
X0385308Y0302381D01*
X0385183Y0302302D01*
X0385056Y0302226D01*
X0384927Y0302154D01*
X0384796Y0302085D01*
X0384663Y0302020D01*
X0384528Y0301959D01*
X0384392Y0301901D01*
X0384255Y0301846D01*
X0384116Y0301796D01*
X0383975Y0301749D01*
X0383834Y0301706D01*
X0383691Y0301666D01*
X0383547Y0301631D01*
X0383403Y0301599D01*
X0383257Y0301572D01*
X0383111Y0301548D01*
X0382964Y0301528D01*
X0382817Y0301512D01*
X0382670Y0301500D01*
X0382522Y0301492D01*
X0382374Y0301488D01*
X0382226Y0301488D01*
X0382078Y0301492D01*
X0381930Y0301500D01*
X0381783Y0301512D01*
X0381636Y0301528D01*
X0381489Y0301548D01*
X0381343Y0301572D01*
X0381197Y0301599D01*
X0381053Y0301631D01*
X0380909Y0301666D01*
X0380766Y0301706D01*
X0380625Y0301749D01*
X0380484Y0301796D01*
X0380345Y0301846D01*
X0380208Y0301901D01*
X0380072Y0301959D01*
X0379937Y0302020D01*
X0379804Y0302085D01*
X0379673Y0302154D01*
X0379544Y0302226D01*
X0379417Y0302302D01*
X0379292Y0302381D01*
X0379169Y0302464D01*
X0379048Y0302549D01*
X0378930Y0302638D01*
X0378814Y0302730D01*
X0378701Y0302826D01*
X0378590Y0302924D01*
X0378482Y0303025D01*
X0378376Y0303129D01*
X0378274Y0303235D01*
X0378174Y0303345D01*
X0378078Y0303457D01*
X0377984Y0303572D01*
X0377893Y0303689D01*
X0377806Y0303808D01*
X0377722Y0303930D01*
X0377641Y0304054D01*
X0377564Y0304180D01*
X0377490Y0304308D01*
X0377419Y0304438D01*
X0377352Y0304570D01*
X0377289Y0304704D01*
X0377229Y0304839D01*
X0377173Y0304976D01*
X0377120Y0305115D01*
X0377072Y0305255D01*
X0377027Y0305396D01*
X0376986Y0305538D01*
X0376948Y0305681D01*
X0376915Y0305825D01*
X0376885Y0305970D01*
X0376859Y0306116D01*
X0376838Y0306262D01*
X0376820Y0306409D01*
X0376806Y0306556D01*
X0376796Y0306704D01*
X0376790Y0306852D01*
X0376788Y0307000D01*
M02*
