%
M48
M72
T01C0.0157
T02C0.0320
T03C0.0394
T04C0.0433
T05C0.0440
T06C0.0512
T07C0.0520
T08C0.0650
T09C0.1102
T10C0.1300
%
T01
X15230Y7000
X16030Y8000
X17830Y17800
X18930Y17800
X18930Y19500
X17830Y19500
X16030Y19500
X14930Y24800
X13430Y24800
X6930Y19300
T02
X8130Y20050
X8130Y18550
X9130Y16700
X10130Y16700
X10430Y15700
X9330Y15200
X9330Y14200
X10430Y13700
X10130Y12700
X9130Y12700
X10430Y11700
X9330Y11200
X9330Y10200
X10430Y9700
X10130Y8700
X9130Y8700
X10430Y7700
X9330Y7200
X9330Y6200
X10430Y5700
X10130Y4700
X9130Y4700
X10430Y3700
X9230Y3200
X9230Y2200
X10430Y1700
X11730Y1700
X11730Y3700
X11730Y5700
X11730Y7700
X11730Y9700
X11730Y11700
X11730Y13700
X11730Y15700
X11530Y18500
X11530Y19900
X12530Y21400
X12530Y23400
X10030Y23000
X10030Y22000
X10030Y24000
X10030Y25000
X10030Y26000
X10030Y27000
X10030Y28000
X7030Y28000
X7030Y27000
X7030Y26000
X7030Y25000
X7030Y24000
X7030Y23000
X7030Y22000
X5430Y22000
X4430Y22000
X4430Y20000
X5430Y20000
X5330Y17700
X5330Y15700
X4430Y15700
X6330Y15200
X6330Y14200
X5330Y13700
X4430Y13700
X4430Y11700
X5330Y11700
X6330Y11200
X6330Y10200
X5330Y9700
X4430Y9700
X4430Y7700
X5330Y7700
X6330Y7200
X6330Y6200
X5330Y5700
X4430Y5700
X4430Y3700
X5330Y3700
X6230Y3200
X6230Y2200
X4430Y1700
X22530Y3400
X24130Y3700
X24130Y4700
X24130Y5800
X23380Y6300
X22530Y6300
X22530Y5400
X24130Y6800
X22530Y8300
X23930Y9400
X24130Y10700
X24130Y11700
X24130Y12800
X23380Y13300
X22530Y13300
X22530Y12400
X24130Y13800
X25930Y14500
X25930Y16300
X25930Y17400
X24130Y17600
X24130Y18600
X24130Y19700
X23380Y20200
X22530Y20200
X22530Y19300
X24130Y20700
X22530Y22200
X23930Y23400
X24130Y24700
X24130Y25700
X24130Y26800
X23380Y27300
X22530Y27300
X22530Y26500
X24130Y27800
X22530Y29300
X25930Y28500
X25930Y24500
X25930Y23400
X25930Y21400
X22530Y24500
X18530Y26000
X18530Y27400
X15830Y27500
X15830Y25500
X5430Y26000
X4430Y26000
X4430Y24000
X5430Y24000
X5430Y28000
X4430Y28000
X4430Y30000
X5430Y30000
X22530Y17300
X23930Y16300
X22530Y15300
X22530Y10400
X25930Y10500
X25930Y9400
X25930Y7500
X25930Y3500
X25930Y2400
X23930Y2400
T03
X20230Y3000
X20230Y4000
X20230Y5000
X20230Y6000
X20230Y7000
X20230Y8000
X20230Y9000
X20230Y10000
X20230Y11000
X20230Y12000
X20230Y13000
X20230Y14000
X20230Y15000
X20230Y16000
X20230Y17000
X14230Y17000
X14230Y16000
X14230Y15000
X14230Y14000
X14230Y13000
X14230Y12000
X14230Y11000
X14230Y10000
X14230Y9000
X14230Y8000
X14230Y7000
X14230Y6000
X14230Y5000
X14230Y4000
X14230Y3000
X13230Y26600
X13230Y28600
T04
X13230Y30300
X16230Y30300
T05
X14230Y23500
X14230Y22500
X14230Y21500
T06
X1820Y2692
X1820Y4692
X1820Y6692
X1820Y8692
X1820Y10692
X1820Y12692
X1820Y14692
X1820Y16692
X1820Y19992
X1820Y21992
X1820Y23992
X1820Y25992
X1820Y27992
X1820Y29992
X18022Y30310
X20022Y30310
X37840Y28508
X37840Y26508
X37840Y24508
X37840Y21508
X37840Y19508
X37840Y17508
X37840Y14508
X37840Y12508
X37840Y10508
X37840Y7508
X37840Y5508
X37840Y3508
T07
X33680Y3150
X28880Y3150
X28080Y5500
X28880Y7850
X28880Y10150
X28080Y12500
X28880Y14850
X28880Y17150
X28080Y19500
X28880Y21850
X28880Y24150
X28080Y26500
X28880Y28850
X33680Y28850
X33680Y24150
X33680Y21850
X33680Y17150
X33680Y14850
X33680Y10150
X33680Y7850
T08
X20230Y2000
X14230Y2000
X14230Y18000
X20230Y18000
T09
X7430Y30700
X38230Y30700
X17230Y1800
X38230Y1500
T10
X20130Y22500
M30
