G75*
%MOIN*%
%OFA0B0*%
%FSLAX25Y25*%
%IPPOS*%
%LPD*%
%AMOC8*
5,1,8,0,0,1.08239X$1,22.5*
%
%ADD10C,0.06000*%
%ADD11C,0.08600*%
%ADD12OC8,0.07400*%
%ADD13R,0.07400X0.07400*%
%ADD14OC8,0.06000*%
%ADD15C,0.08674*%
%ADD16R,0.06737X0.06737*%
%ADD17C,0.06737*%
%ADD18C,0.07300*%
%ADD19C,0.07400*%
%ADD20C,0.13800*%
%ADD21C,0.07493*%
%ADD22C,0.12611*%
%ADD23OC8,0.07100*%
%ADD24C,0.07100*%
%ADD25C,0.11824*%
%ADD26C,0.05000*%
%ADD27C,0.04737*%
D10*
X0059700Y0022000D02*
X0064900Y0022000D01*
X0064900Y0032000D02*
X0059700Y0032000D01*
X0089700Y0032000D02*
X0094900Y0032000D01*
X0094900Y0022000D02*
X0089700Y0022000D01*
X0090700Y0062000D02*
X0095900Y0062000D01*
X0095900Y0072000D02*
X0090700Y0072000D01*
X0065900Y0072000D02*
X0060700Y0072000D01*
X0060700Y0062000D02*
X0065900Y0062000D01*
X0065900Y0102000D02*
X0060700Y0102000D01*
X0060700Y0112000D02*
X0065900Y0112000D01*
X0090700Y0112000D02*
X0095900Y0112000D01*
X0095900Y0102000D02*
X0090700Y0102000D01*
X0090700Y0142000D02*
X0095900Y0142000D01*
X0095900Y0152000D02*
X0090700Y0152000D01*
X0065900Y0152000D02*
X0060700Y0152000D01*
X0060700Y0142000D02*
X0065900Y0142000D01*
X0078700Y0185500D02*
X0083900Y0185500D01*
X0083900Y0200500D02*
X0078700Y0200500D01*
X0072900Y0220000D02*
X0067700Y0220000D01*
X0067700Y0230000D02*
X0072900Y0230000D01*
X0072900Y0240000D02*
X0067700Y0240000D01*
X0067700Y0250000D02*
X0072900Y0250000D01*
X0072900Y0260000D02*
X0067700Y0260000D01*
X0067700Y0270000D02*
X0072900Y0270000D01*
X0072900Y0280000D02*
X0067700Y0280000D01*
X0097700Y0280000D02*
X0102900Y0280000D01*
X0102900Y0270000D02*
X0097700Y0270000D01*
X0097700Y0260000D02*
X0102900Y0260000D01*
X0102900Y0250000D02*
X0097700Y0250000D01*
X0097700Y0240000D02*
X0102900Y0240000D01*
X0102900Y0230000D02*
X0097700Y0230000D01*
X0097700Y0220000D02*
X0102900Y0220000D01*
X0259300Y0216600D02*
X0259300Y0211400D01*
X0259300Y0242400D02*
X0259300Y0247600D01*
X0259300Y0282400D02*
X0259300Y0287600D01*
X0259300Y0176600D02*
X0259300Y0171400D01*
X0259300Y0147600D02*
X0259300Y0142400D01*
X0259300Y0107600D02*
X0259300Y0102400D01*
X0259300Y0077600D02*
X0259300Y0072400D01*
X0259300Y0037600D02*
X0259300Y0032400D01*
D11*
X0284900Y0031500D02*
X0292700Y0031500D01*
X0284700Y0055000D02*
X0276900Y0055000D01*
X0284900Y0078500D02*
X0292700Y0078500D01*
X0292700Y0101500D02*
X0284900Y0101500D01*
X0284700Y0125000D02*
X0276900Y0125000D01*
X0284900Y0148500D02*
X0292700Y0148500D01*
X0292700Y0171500D02*
X0284900Y0171500D01*
X0284700Y0195000D02*
X0276900Y0195000D01*
X0284900Y0218500D02*
X0292700Y0218500D01*
X0292700Y0241500D02*
X0284900Y0241500D01*
X0284700Y0265000D02*
X0276900Y0265000D01*
X0284900Y0288500D02*
X0292700Y0288500D01*
X0332900Y0288500D02*
X0340700Y0288500D01*
X0340700Y0241500D02*
X0332900Y0241500D01*
X0332900Y0218500D02*
X0340700Y0218500D01*
X0340700Y0171500D02*
X0332900Y0171500D01*
X0332900Y0148500D02*
X0340700Y0148500D01*
X0340700Y0101500D02*
X0332900Y0101500D01*
X0332900Y0078500D02*
X0340700Y0078500D01*
X0340700Y0031500D02*
X0332900Y0031500D01*
D12*
X0241300Y0037000D03*
X0241300Y0107000D03*
X0241300Y0176000D03*
X0241300Y0247000D03*
X0101300Y0167000D03*
X0101300Y0127000D03*
X0101300Y0087000D03*
X0101300Y0047000D03*
D13*
X0091300Y0047000D03*
X0091300Y0087000D03*
X0091300Y0127000D03*
X0091300Y0167000D03*
X0241300Y0186000D03*
X0241300Y0117000D03*
X0241300Y0047000D03*
X0241300Y0257000D03*
D14*
X0241300Y0268000D03*
X0233800Y0273000D03*
X0225300Y0273000D03*
X0225300Y0265000D03*
X0241300Y0278000D03*
X0225300Y0293000D03*
X0225300Y0245000D03*
X0239300Y0234000D03*
X0225300Y0222000D03*
X0241300Y0207000D03*
X0233800Y0202000D03*
X0225300Y0202000D03*
X0225300Y0193000D03*
X0241300Y0197000D03*
X0225300Y0173000D03*
X0239300Y0163000D03*
X0225300Y0153000D03*
X0241300Y0138000D03*
X0233800Y0133000D03*
X0225300Y0133000D03*
X0225300Y0124000D03*
X0241300Y0128000D03*
X0225300Y0104000D03*
X0239300Y0094000D03*
X0225300Y0083000D03*
X0241300Y0068000D03*
X0233800Y0063000D03*
X0225300Y0063000D03*
X0225300Y0054000D03*
X0241300Y0058000D03*
X0225300Y0034000D03*
X0239300Y0024000D03*
X0259300Y0024000D03*
X0259300Y0094000D03*
X0259300Y0163000D03*
X0259300Y0234000D03*
X0158300Y0255000D03*
X0158300Y0275000D03*
X0125300Y0234000D03*
X0125300Y0214000D03*
X0117300Y0157000D03*
X0104300Y0157000D03*
X0104300Y0137000D03*
X0117300Y0137000D03*
X0117300Y0117000D03*
X0104300Y0117000D03*
X0104300Y0097000D03*
X0117300Y0097000D03*
X0117300Y0077000D03*
X0104300Y0077000D03*
X0104300Y0057000D03*
X0117300Y0057000D03*
X0117300Y0037000D03*
X0104300Y0037000D03*
X0104300Y0017000D03*
X0117300Y0017000D03*
X0053300Y0037000D03*
X0044300Y0037000D03*
X0044300Y0017000D03*
X0044300Y0057000D03*
X0053300Y0057000D03*
X0053300Y0077000D03*
X0044300Y0077000D03*
X0044300Y0097000D03*
X0053300Y0097000D03*
X0053300Y0117000D03*
X0044300Y0117000D03*
X0044300Y0137000D03*
X0053300Y0137000D03*
X0053300Y0157000D03*
X0044300Y0157000D03*
X0053300Y0177000D03*
X0054300Y0200000D03*
X0044300Y0200000D03*
X0044300Y0220000D03*
X0054300Y0220000D03*
X0054300Y0240000D03*
X0044300Y0240000D03*
X0044300Y0260000D03*
X0054300Y0260000D03*
X0054300Y0280000D03*
X0044300Y0280000D03*
X0044300Y0300000D03*
X0054300Y0300000D03*
D15*
X0018202Y0026917D03*
X0018202Y0046917D03*
X0018202Y0066917D03*
X0018202Y0086917D03*
X0018202Y0106917D03*
X0018202Y0126917D03*
X0018202Y0146917D03*
X0018202Y0166917D03*
X0018202Y0199917D03*
X0018202Y0219917D03*
X0018202Y0239917D03*
X0018202Y0259917D03*
X0018202Y0279917D03*
X0018202Y0299917D03*
X0180217Y0303098D03*
X0200217Y0303098D03*
X0378398Y0285083D03*
X0378398Y0265083D03*
X0378398Y0245083D03*
X0378398Y0215083D03*
X0378398Y0195083D03*
X0378398Y0175083D03*
X0378398Y0145083D03*
X0378398Y0125083D03*
X0378398Y0105083D03*
X0378398Y0075083D03*
X0378398Y0055083D03*
X0378398Y0035083D03*
D16*
X0142300Y0170000D03*
D17*
X0142300Y0160000D03*
X0142300Y0150000D03*
X0142300Y0140000D03*
X0142300Y0130000D03*
X0142300Y0120000D03*
X0142300Y0110000D03*
X0142300Y0100000D03*
X0142300Y0090000D03*
X0142300Y0080000D03*
X0142300Y0070000D03*
X0142300Y0060000D03*
X0142300Y0050000D03*
X0142300Y0040000D03*
X0142300Y0030000D03*
X0202300Y0030000D03*
X0202300Y0040000D03*
X0202300Y0050000D03*
X0202300Y0060000D03*
X0202300Y0070000D03*
X0202300Y0080000D03*
X0202300Y0090000D03*
X0202300Y0100000D03*
X0202300Y0110000D03*
X0202300Y0120000D03*
X0202300Y0130000D03*
X0202300Y0140000D03*
X0202300Y0150000D03*
X0202300Y0160000D03*
X0202300Y0170000D03*
D18*
X0202300Y0180000D03*
X0142300Y0180000D03*
X0142300Y0020000D03*
X0202300Y0020000D03*
D19*
X0145600Y0215000D02*
X0139000Y0215000D01*
X0139000Y0225000D02*
X0145600Y0225000D01*
X0145600Y0235000D02*
X0139000Y0235000D01*
D20*
X0201300Y0225000D03*
D21*
X0162300Y0303000D03*
X0132300Y0303000D03*
D22*
X0126394Y0286000D02*
X0138206Y0286000D01*
X0138206Y0266000D02*
X0126394Y0266000D01*
D23*
X0185300Y0260000D03*
X0115300Y0185000D03*
D24*
X0115300Y0199000D03*
X0185300Y0274000D03*
D25*
X0074300Y0307000D03*
X0382300Y0307000D03*
X0172300Y0018000D03*
X0382300Y0015000D03*
D26*
X0217757Y0017000D02*
X0217759Y0017118D01*
X0217765Y0017237D01*
X0217775Y0017355D01*
X0217789Y0017472D01*
X0217806Y0017589D01*
X0217828Y0017706D01*
X0217854Y0017821D01*
X0217883Y0017936D01*
X0217916Y0018050D01*
X0217953Y0018162D01*
X0217994Y0018273D01*
X0218038Y0018383D01*
X0218086Y0018491D01*
X0218138Y0018598D01*
X0218193Y0018703D01*
X0218252Y0018806D01*
X0218314Y0018906D01*
X0218379Y0019005D01*
X0218448Y0019102D01*
X0218519Y0019196D01*
X0218594Y0019287D01*
X0218672Y0019377D01*
X0218753Y0019463D01*
X0218837Y0019547D01*
X0218923Y0019628D01*
X0219013Y0019706D01*
X0219104Y0019781D01*
X0219198Y0019852D01*
X0219295Y0019921D01*
X0219394Y0019986D01*
X0219494Y0020048D01*
X0219597Y0020107D01*
X0219702Y0020162D01*
X0219809Y0020214D01*
X0219917Y0020262D01*
X0220027Y0020306D01*
X0220138Y0020347D01*
X0220250Y0020384D01*
X0220364Y0020417D01*
X0220479Y0020446D01*
X0220594Y0020472D01*
X0220711Y0020494D01*
X0220828Y0020511D01*
X0220945Y0020525D01*
X0221063Y0020535D01*
X0221182Y0020541D01*
X0221300Y0020543D01*
X0221418Y0020541D01*
X0221537Y0020535D01*
X0221655Y0020525D01*
X0221772Y0020511D01*
X0221889Y0020494D01*
X0222006Y0020472D01*
X0222121Y0020446D01*
X0222236Y0020417D01*
X0222350Y0020384D01*
X0222462Y0020347D01*
X0222573Y0020306D01*
X0222683Y0020262D01*
X0222791Y0020214D01*
X0222898Y0020162D01*
X0223003Y0020107D01*
X0223106Y0020048D01*
X0223206Y0019986D01*
X0223305Y0019921D01*
X0223402Y0019852D01*
X0223496Y0019781D01*
X0223587Y0019706D01*
X0223677Y0019628D01*
X0223763Y0019547D01*
X0223847Y0019463D01*
X0223928Y0019377D01*
X0224006Y0019287D01*
X0224081Y0019196D01*
X0224152Y0019102D01*
X0224221Y0019005D01*
X0224286Y0018906D01*
X0224348Y0018806D01*
X0224407Y0018703D01*
X0224462Y0018598D01*
X0224514Y0018491D01*
X0224562Y0018383D01*
X0224606Y0018273D01*
X0224647Y0018162D01*
X0224684Y0018050D01*
X0224717Y0017936D01*
X0224746Y0017821D01*
X0224772Y0017706D01*
X0224794Y0017589D01*
X0224811Y0017472D01*
X0224825Y0017355D01*
X0224835Y0017237D01*
X0224841Y0017118D01*
X0224843Y0017000D01*
X0224841Y0016882D01*
X0224835Y0016763D01*
X0224825Y0016645D01*
X0224811Y0016528D01*
X0224794Y0016411D01*
X0224772Y0016294D01*
X0224746Y0016179D01*
X0224717Y0016064D01*
X0224684Y0015950D01*
X0224647Y0015838D01*
X0224606Y0015727D01*
X0224562Y0015617D01*
X0224514Y0015509D01*
X0224462Y0015402D01*
X0224407Y0015297D01*
X0224348Y0015194D01*
X0224286Y0015094D01*
X0224221Y0014995D01*
X0224152Y0014898D01*
X0224081Y0014804D01*
X0224006Y0014713D01*
X0223928Y0014623D01*
X0223847Y0014537D01*
X0223763Y0014453D01*
X0223677Y0014372D01*
X0223587Y0014294D01*
X0223496Y0014219D01*
X0223402Y0014148D01*
X0223305Y0014079D01*
X0223206Y0014014D01*
X0223106Y0013952D01*
X0223003Y0013893D01*
X0222898Y0013838D01*
X0222791Y0013786D01*
X0222683Y0013738D01*
X0222573Y0013694D01*
X0222462Y0013653D01*
X0222350Y0013616D01*
X0222236Y0013583D01*
X0222121Y0013554D01*
X0222006Y0013528D01*
X0221889Y0013506D01*
X0221772Y0013489D01*
X0221655Y0013475D01*
X0221537Y0013465D01*
X0221418Y0013459D01*
X0221300Y0013457D01*
X0221182Y0013459D01*
X0221063Y0013465D01*
X0220945Y0013475D01*
X0220828Y0013489D01*
X0220711Y0013506D01*
X0220594Y0013528D01*
X0220479Y0013554D01*
X0220364Y0013583D01*
X0220250Y0013616D01*
X0220138Y0013653D01*
X0220027Y0013694D01*
X0219917Y0013738D01*
X0219809Y0013786D01*
X0219702Y0013838D01*
X0219597Y0013893D01*
X0219494Y0013952D01*
X0219394Y0014014D01*
X0219295Y0014079D01*
X0219198Y0014148D01*
X0219104Y0014219D01*
X0219013Y0014294D01*
X0218923Y0014372D01*
X0218837Y0014453D01*
X0218753Y0014537D01*
X0218672Y0014623D01*
X0218594Y0014713D01*
X0218519Y0014804D01*
X0218448Y0014898D01*
X0218379Y0014995D01*
X0218314Y0015094D01*
X0218252Y0015194D01*
X0218193Y0015297D01*
X0218138Y0015402D01*
X0218086Y0015509D01*
X0218038Y0015617D01*
X0217994Y0015727D01*
X0217953Y0015838D01*
X0217916Y0015950D01*
X0217883Y0016064D01*
X0217854Y0016179D01*
X0217828Y0016294D01*
X0217806Y0016411D01*
X0217789Y0016528D01*
X0217775Y0016645D01*
X0217765Y0016763D01*
X0217759Y0016882D01*
X0217757Y0017000D01*
X0114757Y0300000D02*
X0114759Y0300118D01*
X0114765Y0300237D01*
X0114775Y0300355D01*
X0114789Y0300472D01*
X0114806Y0300589D01*
X0114828Y0300706D01*
X0114854Y0300821D01*
X0114883Y0300936D01*
X0114916Y0301050D01*
X0114953Y0301162D01*
X0114994Y0301273D01*
X0115038Y0301383D01*
X0115086Y0301491D01*
X0115138Y0301598D01*
X0115193Y0301703D01*
X0115252Y0301806D01*
X0115314Y0301906D01*
X0115379Y0302005D01*
X0115448Y0302102D01*
X0115519Y0302196D01*
X0115594Y0302287D01*
X0115672Y0302377D01*
X0115753Y0302463D01*
X0115837Y0302547D01*
X0115923Y0302628D01*
X0116013Y0302706D01*
X0116104Y0302781D01*
X0116198Y0302852D01*
X0116295Y0302921D01*
X0116394Y0302986D01*
X0116494Y0303048D01*
X0116597Y0303107D01*
X0116702Y0303162D01*
X0116809Y0303214D01*
X0116917Y0303262D01*
X0117027Y0303306D01*
X0117138Y0303347D01*
X0117250Y0303384D01*
X0117364Y0303417D01*
X0117479Y0303446D01*
X0117594Y0303472D01*
X0117711Y0303494D01*
X0117828Y0303511D01*
X0117945Y0303525D01*
X0118063Y0303535D01*
X0118182Y0303541D01*
X0118300Y0303543D01*
X0118418Y0303541D01*
X0118537Y0303535D01*
X0118655Y0303525D01*
X0118772Y0303511D01*
X0118889Y0303494D01*
X0119006Y0303472D01*
X0119121Y0303446D01*
X0119236Y0303417D01*
X0119350Y0303384D01*
X0119462Y0303347D01*
X0119573Y0303306D01*
X0119683Y0303262D01*
X0119791Y0303214D01*
X0119898Y0303162D01*
X0120003Y0303107D01*
X0120106Y0303048D01*
X0120206Y0302986D01*
X0120305Y0302921D01*
X0120402Y0302852D01*
X0120496Y0302781D01*
X0120587Y0302706D01*
X0120677Y0302628D01*
X0120763Y0302547D01*
X0120847Y0302463D01*
X0120928Y0302377D01*
X0121006Y0302287D01*
X0121081Y0302196D01*
X0121152Y0302102D01*
X0121221Y0302005D01*
X0121286Y0301906D01*
X0121348Y0301806D01*
X0121407Y0301703D01*
X0121462Y0301598D01*
X0121514Y0301491D01*
X0121562Y0301383D01*
X0121606Y0301273D01*
X0121647Y0301162D01*
X0121684Y0301050D01*
X0121717Y0300936D01*
X0121746Y0300821D01*
X0121772Y0300706D01*
X0121794Y0300589D01*
X0121811Y0300472D01*
X0121825Y0300355D01*
X0121835Y0300237D01*
X0121841Y0300118D01*
X0121843Y0300000D01*
X0121841Y0299882D01*
X0121835Y0299763D01*
X0121825Y0299645D01*
X0121811Y0299528D01*
X0121794Y0299411D01*
X0121772Y0299294D01*
X0121746Y0299179D01*
X0121717Y0299064D01*
X0121684Y0298950D01*
X0121647Y0298838D01*
X0121606Y0298727D01*
X0121562Y0298617D01*
X0121514Y0298509D01*
X0121462Y0298402D01*
X0121407Y0298297D01*
X0121348Y0298194D01*
X0121286Y0298094D01*
X0121221Y0297995D01*
X0121152Y0297898D01*
X0121081Y0297804D01*
X0121006Y0297713D01*
X0120928Y0297623D01*
X0120847Y0297537D01*
X0120763Y0297453D01*
X0120677Y0297372D01*
X0120587Y0297294D01*
X0120496Y0297219D01*
X0120402Y0297148D01*
X0120305Y0297079D01*
X0120206Y0297014D01*
X0120106Y0296952D01*
X0120003Y0296893D01*
X0119898Y0296838D01*
X0119791Y0296786D01*
X0119683Y0296738D01*
X0119573Y0296694D01*
X0119462Y0296653D01*
X0119350Y0296616D01*
X0119236Y0296583D01*
X0119121Y0296554D01*
X0119006Y0296528D01*
X0118889Y0296506D01*
X0118772Y0296489D01*
X0118655Y0296475D01*
X0118537Y0296465D01*
X0118418Y0296459D01*
X0118300Y0296457D01*
X0118182Y0296459D01*
X0118063Y0296465D01*
X0117945Y0296475D01*
X0117828Y0296489D01*
X0117711Y0296506D01*
X0117594Y0296528D01*
X0117479Y0296554D01*
X0117364Y0296583D01*
X0117250Y0296616D01*
X0117138Y0296653D01*
X0117027Y0296694D01*
X0116917Y0296738D01*
X0116809Y0296786D01*
X0116702Y0296838D01*
X0116597Y0296893D01*
X0116494Y0296952D01*
X0116394Y0297014D01*
X0116295Y0297079D01*
X0116198Y0297148D01*
X0116104Y0297219D01*
X0116013Y0297294D01*
X0115923Y0297372D01*
X0115837Y0297453D01*
X0115753Y0297537D01*
X0115672Y0297623D01*
X0115594Y0297713D01*
X0115519Y0297804D01*
X0115448Y0297898D01*
X0115379Y0297995D01*
X0115314Y0298094D01*
X0115252Y0298194D01*
X0115193Y0298297D01*
X0115138Y0298402D01*
X0115086Y0298509D01*
X0115038Y0298617D01*
X0114994Y0298727D01*
X0114953Y0298838D01*
X0114916Y0298950D01*
X0114883Y0299064D01*
X0114854Y0299179D01*
X0114828Y0299294D01*
X0114806Y0299411D01*
X0114789Y0299528D01*
X0114775Y0299645D01*
X0114765Y0299763D01*
X0114759Y0299882D01*
X0114757Y0300000D01*
X0358757Y0306000D02*
X0358759Y0306118D01*
X0358765Y0306237D01*
X0358775Y0306355D01*
X0358789Y0306472D01*
X0358806Y0306589D01*
X0358828Y0306706D01*
X0358854Y0306821D01*
X0358883Y0306936D01*
X0358916Y0307050D01*
X0358953Y0307162D01*
X0358994Y0307273D01*
X0359038Y0307383D01*
X0359086Y0307491D01*
X0359138Y0307598D01*
X0359193Y0307703D01*
X0359252Y0307806D01*
X0359314Y0307906D01*
X0359379Y0308005D01*
X0359448Y0308102D01*
X0359519Y0308196D01*
X0359594Y0308287D01*
X0359672Y0308377D01*
X0359753Y0308463D01*
X0359837Y0308547D01*
X0359923Y0308628D01*
X0360013Y0308706D01*
X0360104Y0308781D01*
X0360198Y0308852D01*
X0360295Y0308921D01*
X0360394Y0308986D01*
X0360494Y0309048D01*
X0360597Y0309107D01*
X0360702Y0309162D01*
X0360809Y0309214D01*
X0360917Y0309262D01*
X0361027Y0309306D01*
X0361138Y0309347D01*
X0361250Y0309384D01*
X0361364Y0309417D01*
X0361479Y0309446D01*
X0361594Y0309472D01*
X0361711Y0309494D01*
X0361828Y0309511D01*
X0361945Y0309525D01*
X0362063Y0309535D01*
X0362182Y0309541D01*
X0362300Y0309543D01*
X0362418Y0309541D01*
X0362537Y0309535D01*
X0362655Y0309525D01*
X0362772Y0309511D01*
X0362889Y0309494D01*
X0363006Y0309472D01*
X0363121Y0309446D01*
X0363236Y0309417D01*
X0363350Y0309384D01*
X0363462Y0309347D01*
X0363573Y0309306D01*
X0363683Y0309262D01*
X0363791Y0309214D01*
X0363898Y0309162D01*
X0364003Y0309107D01*
X0364106Y0309048D01*
X0364206Y0308986D01*
X0364305Y0308921D01*
X0364402Y0308852D01*
X0364496Y0308781D01*
X0364587Y0308706D01*
X0364677Y0308628D01*
X0364763Y0308547D01*
X0364847Y0308463D01*
X0364928Y0308377D01*
X0365006Y0308287D01*
X0365081Y0308196D01*
X0365152Y0308102D01*
X0365221Y0308005D01*
X0365286Y0307906D01*
X0365348Y0307806D01*
X0365407Y0307703D01*
X0365462Y0307598D01*
X0365514Y0307491D01*
X0365562Y0307383D01*
X0365606Y0307273D01*
X0365647Y0307162D01*
X0365684Y0307050D01*
X0365717Y0306936D01*
X0365746Y0306821D01*
X0365772Y0306706D01*
X0365794Y0306589D01*
X0365811Y0306472D01*
X0365825Y0306355D01*
X0365835Y0306237D01*
X0365841Y0306118D01*
X0365843Y0306000D01*
X0365841Y0305882D01*
X0365835Y0305763D01*
X0365825Y0305645D01*
X0365811Y0305528D01*
X0365794Y0305411D01*
X0365772Y0305294D01*
X0365746Y0305179D01*
X0365717Y0305064D01*
X0365684Y0304950D01*
X0365647Y0304838D01*
X0365606Y0304727D01*
X0365562Y0304617D01*
X0365514Y0304509D01*
X0365462Y0304402D01*
X0365407Y0304297D01*
X0365348Y0304194D01*
X0365286Y0304094D01*
X0365221Y0303995D01*
X0365152Y0303898D01*
X0365081Y0303804D01*
X0365006Y0303713D01*
X0364928Y0303623D01*
X0364847Y0303537D01*
X0364763Y0303453D01*
X0364677Y0303372D01*
X0364587Y0303294D01*
X0364496Y0303219D01*
X0364402Y0303148D01*
X0364305Y0303079D01*
X0364206Y0303014D01*
X0364106Y0302952D01*
X0364003Y0302893D01*
X0363898Y0302838D01*
X0363791Y0302786D01*
X0363683Y0302738D01*
X0363573Y0302694D01*
X0363462Y0302653D01*
X0363350Y0302616D01*
X0363236Y0302583D01*
X0363121Y0302554D01*
X0363006Y0302528D01*
X0362889Y0302506D01*
X0362772Y0302489D01*
X0362655Y0302475D01*
X0362537Y0302465D01*
X0362418Y0302459D01*
X0362300Y0302457D01*
X0362182Y0302459D01*
X0362063Y0302465D01*
X0361945Y0302475D01*
X0361828Y0302489D01*
X0361711Y0302506D01*
X0361594Y0302528D01*
X0361479Y0302554D01*
X0361364Y0302583D01*
X0361250Y0302616D01*
X0361138Y0302653D01*
X0361027Y0302694D01*
X0360917Y0302738D01*
X0360809Y0302786D01*
X0360702Y0302838D01*
X0360597Y0302893D01*
X0360494Y0302952D01*
X0360394Y0303014D01*
X0360295Y0303079D01*
X0360198Y0303148D01*
X0360104Y0303219D01*
X0360013Y0303294D01*
X0359923Y0303372D01*
X0359837Y0303453D01*
X0359753Y0303537D01*
X0359672Y0303623D01*
X0359594Y0303713D01*
X0359519Y0303804D01*
X0359448Y0303898D01*
X0359379Y0303995D01*
X0359314Y0304094D01*
X0359252Y0304194D01*
X0359193Y0304297D01*
X0359138Y0304402D01*
X0359086Y0304509D01*
X0359038Y0304617D01*
X0358994Y0304727D01*
X0358953Y0304838D01*
X0358916Y0304950D01*
X0358883Y0305064D01*
X0358854Y0305179D01*
X0358828Y0305294D01*
X0358806Y0305411D01*
X0358789Y0305528D01*
X0358775Y0305645D01*
X0358765Y0305763D01*
X0358759Y0305882D01*
X0358757Y0306000D01*
D27*
X0362300Y0306000D03*
X0189300Y0195000D03*
X0178300Y0195000D03*
X0160300Y0195000D03*
X0178300Y0178000D03*
X0189300Y0178000D03*
X0149300Y0248000D03*
X0134300Y0248000D03*
X0118300Y0300000D03*
X0069300Y0193000D03*
X0160300Y0080000D03*
X0152300Y0070000D03*
X0221300Y0017000D03*
M02*
